<svg width="33" height="33" viewBox="0 0 33 33" fill="none" xmlns="http://www.w3.org/2000/svg">
<g clip-path="url(#clip0_570_4410)">
<rect width="32.3368" height="32.3368" rx="16.1684" fill="#3DCBB1"/>
<rect x="3.53662" y="3.53687" width="25.2632" height="25.2632" rx="12.6316" fill="#3DCBB1"/>
<path d="M22.3795 17.5758C25.7269 17.5758 27.7644 19.7297 27.7644 23.6883V32.5369H22.3795V24.416C22.3795 23.4263 21.9138 22.7568 20.8951 22.7568C19.6435 22.7568 19.1777 23.7465 19.1777 24.9108V32.5369H13.7929V24.416C13.7929 23.4263 13.3272 22.7568 12.3084 22.7568C11.0568 22.7568 10.5911 23.7465 10.5911 24.9108V32.5369H5.20628V17.9833H10.5911V19.3513C11.4352 18.3034 12.7742 17.5758 14.5497 17.5758C16.2088 17.5758 17.4313 18.187 18.1881 19.3804C19.1195 18.3034 20.4294 17.5758 22.3795 17.5758Z" fill="white"/>
</g>
<defs>
<clipPath id="clip0_570_4410">
<rect width="32.3368" height="32.3368" rx="16.1684" fill="white"/>
</clipPath>
</defs>
</svg>
