<svg width="108" height="19" viewBox="0 0 108 19" fill="none" xmlns="http://www.w3.org/2000/svg">
<path d="M13.7372 1.19343V14.5117H10.693V6.76809L7.24929 12.4188H6.90682L3.46309 6.76809V14.5117H0.418911V1.19343H3.46309L7.07805 7.11056L10.693 1.19343H13.7372ZM21.9244 4.99866H24.9686L21.7151 14.2263C20.6496 17.2515 18.9563 18.4501 16.2926 18.3169V15.6533C17.6245 15.6533 18.2523 15.2347 18.6709 14.0741L14.8847 4.99866H18.024L20.1359 10.8207L21.9244 4.99866ZM32.47 14.7781C28.4555 14.7781 25.5445 11.772 25.5445 7.85258C25.5445 3.9332 28.4555 0.927069 32.47 0.927069C34.8864 0.927069 37.0173 2.12571 38.1779 4.0093L35.5523 5.53139C34.9625 4.50398 33.8209 3.89514 32.47 3.89514C30.1108 3.89514 28.5887 5.47431 28.5887 7.85258C28.5887 10.2308 30.1108 11.81 32.47 11.81C33.8209 11.81 34.9815 11.2012 35.5523 10.1738L38.1779 11.6959C37.0363 13.5794 34.9054 14.7781 32.47 14.7781ZM44.1686 14.7781C41.3717 14.7781 39.1267 12.5901 39.1267 9.75519C39.1267 6.9203 41.3717 4.73229 44.1686 4.73229C46.9654 4.73229 49.2105 6.9203 49.2105 9.75519C49.2105 12.5901 46.9654 14.7781 44.1686 14.7781ZM44.1686 12.0003C45.4053 12.0003 46.3566 11.106 46.3566 9.75519C46.3566 8.40433 45.4053 7.51011 44.1686 7.51011C42.9319 7.51011 41.9806 8.40433 41.9806 9.75519C41.9806 11.106 42.9319 12.0003 44.1686 12.0003ZM56.9702 4.99866H59.8241V14.5117H56.9702V13.6175C56.4565 14.3215 55.5052 14.7781 54.2495 14.7781C52.3278 14.7781 50.6916 13.4082 50.6916 10.8397V4.99866H53.5455V10.4211C53.5455 11.6007 54.2875 12.1525 55.2008 12.1525C56.2472 12.1525 56.9702 11.5436 56.9702 10.1928V4.99866ZM64.771 6.69198C65.1516 5.41723 66.4263 4.8084 67.625 4.8084V8.04284C66.4453 7.85258 64.771 8.32823 64.771 10.2118V14.5117H61.9171V4.99866H64.771V6.69198ZM71.382 7.77647C71.382 8.86096 76.0625 8.13797 76.0625 11.6578C76.0625 13.8458 74.1598 14.7781 72.105 14.7781C70.2024 14.7781 68.7564 14.0551 68.0144 12.514L70.4878 11.106C70.7351 11.829 71.2679 12.2286 72.105 12.2286C72.79 12.2286 73.1324 12.0193 73.1324 11.6388C73.1324 10.5923 68.452 11.1441 68.452 7.85258C68.452 5.77873 70.2024 4.73229 72.1811 4.73229C73.7222 4.73229 75.0921 5.41723 75.8912 6.76809L73.4559 8.08089C73.1895 7.58621 72.809 7.24374 72.1811 7.24374C71.6864 7.24374 71.382 7.434 71.382 7.77647ZM79.9439 10.8968C80.3054 11.8861 81.1806 12.2286 82.2271 12.2286C83.0071 12.2286 83.673 11.9242 84.0536 11.5056L86.3367 12.8184C85.4044 14.1122 83.9965 14.7781 82.189 14.7781C78.9355 14.7781 76.9188 12.5901 76.9188 9.75519C76.9188 6.9203 78.9736 4.73229 81.9797 4.73229C84.7575 4.73229 86.8124 6.88224 86.8124 9.75519C86.8124 10.1547 86.7743 10.5353 86.6982 10.8968H79.9439ZM79.8869 8.76583H83.9775C83.673 7.66232 82.8169 7.26277 81.9607 7.26277C80.8762 7.26277 80.1532 7.7955 79.8869 8.76583ZM89.2865 14.7781C88.2971 14.7781 87.479 13.96 87.479 12.9706C87.479 11.9812 88.2971 11.1631 89.2865 11.1631C90.2759 11.1631 91.094 11.9812 91.094 12.9706C91.094 13.96 90.2759 14.7781 89.2865 14.7781ZM94.4287 4.16151C93.4965 4.16151 92.7164 3.38144 92.7164 2.44916C92.7164 1.51688 93.4965 0.736808 94.4287 0.736808C95.361 0.736808 96.1411 1.51688 96.1411 2.44916C96.1411 3.38144 95.361 4.16151 94.4287 4.16151ZM93.0018 14.5117V4.99866H95.8557V14.5117H93.0018ZM102.51 14.7781C99.7136 14.7781 97.4685 12.5901 97.4685 9.75519C97.4685 6.9203 99.7136 4.73229 102.51 4.73229C105.307 4.73229 107.552 6.9203 107.552 9.75519C107.552 12.5901 105.307 14.7781 102.51 14.7781ZM102.51 12.0003C103.747 12.0003 104.698 11.106 104.698 9.75519C104.698 8.40433 103.747 7.51011 102.51 7.51011C101.274 7.51011 100.322 8.40433 100.322 9.75519C100.322 11.106 101.274 12.0003 102.51 12.0003Z" fill="white"/>
</svg>
