<svg width="76" height="14" viewBox="0 0 76 14" fill="none" xmlns="http://www.w3.org/2000/svg">
<path d="M9.61755 1.02705V10.3895H7.47757V4.94589L5.05671 8.91823H4.81596L2.39511 4.94589V10.3895H0.25513V1.02705H2.39511L4.93634 5.18664L7.47757 1.02705H9.61755ZM15.3729 3.70202H17.5129L15.2258 10.1888C14.4768 12.3154 13.2864 13.1581 11.414 13.0644V11.192C12.3502 11.192 12.7916 10.8977 13.0858 10.0818L10.4242 3.70202H12.6311L14.1157 7.79474L15.3729 3.70202ZM22.7863 10.5767C19.9642 10.5767 17.9178 8.46348 17.9178 5.70826C17.9178 2.95303 19.9642 0.839798 22.7863 0.839798C24.4849 0.839798 25.9829 1.68242 26.7987 3.00653L24.953 4.07652C24.5384 3.35428 23.7359 2.92628 22.7863 2.92628C21.1278 2.92628 20.0578 4.0364 20.0578 5.70826C20.0578 7.38012 21.1278 8.49023 22.7863 8.49023C23.7359 8.49023 24.5518 8.06224 24.953 7.33999L26.7987 8.40998C25.9962 9.7341 24.4983 10.5767 22.7863 10.5767ZM31.01 10.5767C29.0439 10.5767 27.4657 9.0386 27.4657 7.04574C27.4657 5.05289 29.0439 3.51478 31.01 3.51478C32.9762 3.51478 34.5544 5.05289 34.5544 7.04574C34.5544 9.0386 32.9762 10.5767 31.01 10.5767ZM31.01 8.62398C31.8794 8.62398 32.5482 7.99536 32.5482 7.04574C32.5482 6.09613 31.8794 5.46751 31.01 5.46751C30.1407 5.46751 29.4719 6.09613 29.4719 7.04574C29.4719 7.99536 30.1407 8.62398 31.01 8.62398ZM40.0093 3.70202H42.0155V10.3895H40.0093V9.76085C39.6481 10.2557 38.9794 10.5767 38.0966 10.5767C36.7458 10.5767 35.5955 9.61372 35.5955 7.80811V3.70202H37.6018V7.51387C37.6018 8.34311 38.1234 8.73098 38.7654 8.73098C39.501 8.73098 40.0093 8.30298 40.0093 7.35337V3.70202ZM45.4931 4.89239C45.7606 3.99627 46.6567 3.56827 47.4993 3.56827V5.84201C46.67 5.70826 45.4931 6.04263 45.4931 7.36674V10.3895H43.4868V3.70202H45.4931V4.89239ZM50.1404 5.65476C50.1404 6.41712 53.4306 5.90888 53.4306 8.38323C53.4306 9.92134 52.0931 10.5767 50.6487 10.5767C49.3112 10.5767 48.2947 10.0685 47.7731 8.9851L49.5118 7.99536C49.6857 8.50361 50.0602 8.78448 50.6487 8.78448C51.1302 8.78448 51.3709 8.63736 51.3709 8.36986C51.3709 7.63424 48.0807 8.02211 48.0807 5.70826C48.0807 4.25039 49.3112 3.51478 50.7022 3.51478C51.7855 3.51478 52.7485 3.99627 53.3103 4.94589L51.5983 5.86875C51.411 5.52101 51.1435 5.28026 50.7022 5.28026C50.3544 5.28026 50.1404 5.41401 50.1404 5.65476ZM56.1592 7.84824C56.4133 8.54373 57.0286 8.78448 57.7642 8.78448C58.3126 8.78448 58.7807 8.57048 59.0482 8.27623L60.6532 9.1991C59.9978 10.1086 59.0081 10.5767 57.7375 10.5767C55.4503 10.5767 54.0326 9.0386 54.0326 7.04574C54.0326 5.05289 55.4771 3.51478 57.5903 3.51478C59.5431 3.51478 60.9875 5.02614 60.9875 7.04574C60.9875 7.32662 60.9608 7.59411 60.9073 7.84824H56.1592ZM56.1191 6.35025H58.9947C58.7807 5.57451 58.1788 5.29363 57.577 5.29363C56.8146 5.29363 56.3063 5.66813 56.1191 6.35025ZM62.7268 10.5767C62.0313 10.5767 61.4562 10.0016 61.4562 9.3061C61.4562 8.61061 62.0313 8.03549 62.7268 8.03549C63.4223 8.03549 63.9974 8.61061 63.9974 9.3061C63.9974 10.0016 63.4223 10.5767 62.7268 10.5767ZM66.3417 3.11353C65.6863 3.11353 65.1379 2.56516 65.1379 1.90979C65.1379 1.25442 65.6863 0.70605 66.3417 0.70605C66.997 0.70605 67.5454 1.25442 67.5454 1.90979C67.5454 2.56516 66.997 3.11353 66.3417 3.11353ZM65.3386 10.3895V3.70202H67.3448V10.3895H65.3386ZM72.0229 10.5767C70.0568 10.5767 68.4785 9.0386 68.4785 7.04574C68.4785 5.05289 70.0568 3.51478 72.0229 3.51478C73.989 3.51478 75.5672 5.05289 75.5672 7.04574C75.5672 9.0386 73.989 10.5767 72.0229 10.5767ZM72.0229 8.62398C72.8922 8.62398 73.561 7.99536 73.561 7.04574C73.561 6.09613 72.8922 5.46751 72.0229 5.46751C71.1535 5.46751 70.4848 6.09613 70.4848 7.04574C70.4848 7.99536 71.1535 8.62398 72.0229 8.62398Z" fill="black"/>
</svg>
